# xmcd
#
# Track frame offsets: 
#        150
#        15032
#        32242
#        52285
#        71605
#        85307
#        97755
#        110790
#        125077
#        139762
#        155752
#        169975
#
# Disc length: 2504 seconds
#
# Revision: 4
# Processed by: cddbd v1.5.1PL0 Copyright (c) Steve Scherf et al.
# Submitted via: ExactAudioCopy v0.95a5
#
DISCID=a609c60c
DTITLE=Dolly Parton - Hungry Again
DYEAR=1900
DGENRE=Country
TTITLE0=Hungry Again
TTITLE1=The Salt In My Tears
TTITLE2=Honky Tonk Songs
TTITLE3=Blue Valley Songbird
TTITLE4=I Wanna Go Back There
TTITLE5=When Jesus Comes Calling For Me
TTITLE6=Time And Tears
TTITLE7=I'll Never Say Goodbye
TTITLE8=The Camel's Heart
TTITLE9=I Still Lost You
TTITLE10=Paradise Road
TTITLE11=Shine On
EXTD=
EXTT0=
EXTT1=
EXTT2=
EXTT3=
EXTT4=
EXTT5=
EXTT6=
EXTT7=
EXTT8=
EXTT9=
EXTT10=
EXTT11=
PLAYORDER=
